<svg width="20"
	height="20"
	viewBox="0 0 20 20"
	fill="none"
	xmlns="http://www.w3.org/2000/svg">
	<path d="M9.9997 0C6.17275 0 3.05936 3.11385 3.05936 6.94089C3.05936 10.6248 9.35645 19.2316 9.62457 19.596L9.87481 19.9366C9.90407 19.9766 9.95067 20 9.9997 20C10.0495 20 10.0958 19.9766 10.1253 19.9366L10.3754 19.596C10.6437 19.2316 16.9406 10.6248 16.9406 6.94089C16.9406 3.11385 13.8267 0 9.9997 0ZM9.9997 4.45468C11.3709 4.45468 12.4859 5.56974 12.4859 6.94089C12.4859 8.31134 11.3709 9.42711 9.9997 9.42711C8.6293 9.42711 7.51348 8.31134 7.51348 6.94089C7.51348 5.56974 8.62925 4.45468 9.9997 4.45468Z"
		fill="#fff"/>
</svg>
